<svg height="512pt" viewBox="0 0 512 512" width="512pt" xmlns="http://www.w3.org/2000/svg">
<path style="fill:#fff;" d="m256 0c-139.480469 0-256 116.132812-256 256 0 139.480469 116.132812 256 256 256 139.480469 0 256-116.132812 256-256 0-139.480469-116.132812-256-256-256zm159.097656 96.902344c85.648438 85.644531 89.054688 217.871094 10.261719 307.246094l-51.003906-51.003907c9.332031-16.339843 14.703125-34.449219 15.503906-52.933593 1.371094-31.734376-10.476563-64.230469-34.257813-93.976563l-28.058593-35.097656 1.585937 52.714843c.546875 18.289063-10.160156 33.679688-25.015625 40.617188 5.976563-22.921875 10.507813-45.359375 8.964844-69.492188-3.371094-52.6875-34.367187-93.1875-56.855469-125.390624-18.191406 39.667968-30.289062 69.488281-66.78125 98.640624l-81.589844-81.585937c42.824219-37.757813 95.484376-56.652344 148.148438-56.652344 57.246094 0 114.492188 22.304688 159.097656 66.914063zm-228.191406 111.214844 79.75 79.753906-2.675781 9.765625 12.980469.535156 58.058593 58.0625c-.234375.246094-.460937.5-.695312.746094-31.25 32.746093-90.734375 48.476562-139.414063 13.140625-38.128906-27.675782-52.515625-77.246094-35.792968-123.347656 6.9375-19.128907 16-29.050782 27.789062-38.65625zm88.800781 46.378906-64.929687-64.929688c15.40625-12.578125 32.550781-29.53125 49.667968-59.816406 29.308594 50.3125 25.832032 83.605469 15.261719 124.746094zm38.296875 38.296875c17.09375-7.117188 30.148438-19.929688 37.761719-35.628907 11.6875 27.636719 9.527344 53.046876.25 73.636719zm-217.101562 122.304687c-85.648438-85.644531-89.058594-217.871094-10.261719-307.246094l78.957031 78.957032c-13.503906 11.347656-25.742187 25.085937-34.683594 49.734375-21.328124 58.808593-2.691406 122.246093 46.375 157.855469 57.644532 41.839843 133.460938 30.734374 178.738282-16.703126.074218-.078124.144531-.160156.21875-.234374l47.902344 47.898437c-89.375 78.792969-221.601563 75.382813-307.246094-10.261719zm0 0"/></svg>