<svg id="Capa_1" fill="#fff" enable-background="new 0 0 512 512" height="512" viewBox="0 0 512 512" width="512" xmlns="http://www.w3.org/2000/svg"><g><path d="m440.76 0h-369.52c-20.678 0-37.5 16.822-37.5 37.5v134.15c0 4.143 3.357 7.5 7.5 7.5s7.5-3.357 7.5-7.5v-86.15h414.52v288.97c0 12.406-10.094 22.5-22.5 22.5h-54.662v-26.68-18.611c0-12.968-10.55-23.519-23.518-23.519h-54.59v-14.031c0-11.914-9.693-21.607-21.607-21.607h-60.766c-11.914 0-21.607 9.693-21.607 21.607v14.031h-10.6c-4.143 0-7.5 3.357-7.5 7.5s3.357 7.5 7.5 7.5h169.17c4.696 0 8.518 3.821 8.518 8.519v18.611c0 8.762-4.731 16.897-12.351 21.233l-15.39 8.77c-11.125 6.338-23.77 9.688-36.567 9.688h-27.985v-2.114c0-12.574-10.23-22.805-22.805-22.805s-22.805 10.23-22.805 22.805v2.114h-16.505c-12.799 0-25.443-3.35-36.567-9.688l-26.873-15.312c-7.616-4.334-12.348-12.47-12.348-21.231v-12.071c0-4.697 3.821-8.519 8.518-8.519h13.99c4.143 0 7.5-3.357 7.5-7.5s-3.357-7.5-7.5-7.5h-13.99c-12.968 0-23.518 10.551-23.518 23.519v12.071 33.22h-54.662c-12.406 0-22.5-10.094-22.5-22.5v-172.82c0-4.143-3.357-7.5-7.5-7.5s-7.5 3.357-7.5 7.5v172.82c0 20.678 16.822 37.5 37.5 37.5h54.662v76.514c0 12.967 10.55 23.517 23.518 23.517h213.16c12.968 0 23.518-10.55 23.518-23.517v-76.514h54.662c20.678 0 37.5-16.822 37.5-37.5v-336.97c0-20.678-16.822-37.5-37.5-37.5zm-221.75 314.129c0-3.644 2.964-6.607 6.607-6.607h60.766c3.644 0 6.607 2.964 6.607 6.607v14.031h-73.98zm36.99 85.933c4.304 0 7.805 3.501 7.805 7.805v9.518c0 .032-.005.064-.005.097s.004.064.005.097v15.565c0 4.304-3.501 7.805-7.805 7.805s-7.805-3.501-7.805-7.805v-15.565c0-.032.005-.064.005-.097s-.004-.064-.005-.097v-9.518c0-4.304 3.501-7.805 7.805-7.805zm106.58 96.938h-213.16c-4.696 0-8.518-3.82-8.518-8.517v-93.808c1.546 1.223 3.183 2.35 4.925 3.341l26.87 15.31c13.383 7.624 28.595 11.654 43.993 11.654h16.505v8.162c0 12.574 10.23 22.805 22.805 22.805s22.805-10.23 22.805-22.805v-8.162h27.985c15.396 0 30.609-4.03 43.993-11.654l15.387-8.768c1.743-.992 3.38-2.119 4.928-3.344v87.268c0 4.698-3.822 8.518-8.518 8.518zm-313.84-426.5v-33c0-12.406 10.094-22.5 22.5-22.5h369.52c12.406 0 22.5 10.094 22.5 22.5v33z"/><path d="m95.856 22.639c-11.09 0-20.111 9.021-20.111 20.111s9.021 20.111 20.111 20.111 20.111-9.021 20.111-20.111-9.021-20.111-20.111-20.111zm0 25.222c-2.818 0-5.111-2.293-5.111-5.111s2.293-5.111 5.111-5.111 5.111 2.293 5.111 5.111-2.292 5.111-5.111 5.111z"/><path d="m148.745 22.639c-11.09 0-20.112 9.021-20.112 20.111s9.022 20.111 20.112 20.111 20.111-9.021 20.111-20.111-9.021-20.111-20.111-20.111zm0 25.222c-2.819 0-5.112-2.293-5.112-5.111s2.293-5.111 5.112-5.111c2.818 0 5.111 2.293 5.111 5.111s-2.293 5.111-5.111 5.111z"/><path d="m201.633 22.639c-11.09 0-20.111 9.021-20.111 20.111s9.021 20.111 20.111 20.111 20.112-9.021 20.112-20.111-9.022-20.111-20.112-20.111zm0 25.222c-2.818 0-5.111-2.293-5.111-5.111s2.293-5.111 5.111-5.111c2.819 0 5.112 2.293 5.112 5.111s-2.293 5.111-5.112 5.111z"/><path d="m169.127 159.845h-93.486c-4.143 0-7.5 3.357-7.5 7.5v93.486c0 .07.009.137.01.206.115 4.002 3.337 7.243 7.401 7.29.03 0 .059.004.088.004h93.478c.005 0 .01.001.015.001.035 0 .07-.006.105-.007 3.982-.058 7.258-3.221 7.378-7.284.002-.07.011-.139.011-.21v-.123c0-.004 0-.007 0-.011v-93.352c0-4.143-3.357-7.5-7.5-7.5zm-7.5 15v57.455l-13.188-23.351c-2.66-4.71-7.673-7.637-13.082-7.637s-10.422 2.927-13.081 7.636l-9.619 17.032c-2.756-4.464-7.496-7.115-12.772-7.115-.001 0-.001 0-.002 0-5.431 0-10.295 2.808-13.011 7.512l-3.731 6.463v-57.995zm-5.349 78.486h-67.632l11.258-19.454 6.334 10.971c1.346 2.332 3.807 3.76 6.53 3.75 2.692-.013 5.171-1.468 6.495-3.812l16.115-28.461z"/><path d="m302.743 159.845h-93.486c-4.143 0-7.5 3.357-7.5 7.5v93.486c0 .07.009.137.01.206.115 4.006 3.342 7.243 7.401 7.29.03 0 .059.004.088.004h93.478c.005 0 .01.001.015.001 4.119 0 7.493-3.391 7.493-7.501v-.123c0-.004 0-.008 0-.011v-93.353c.001-4.142-3.356-7.499-7.499-7.499zm-7.5 15v57.455l-13.188-23.351c-2.66-4.71-7.674-7.636-13.083-7.636-5.409.001-10.421 2.927-13.08 7.636l-9.619 17.031c-2.756-4.464-7.497-7.114-12.774-7.114-5.431 0-10.294 2.808-13.011 7.512l-3.731 6.463v-57.995h78.486zm-5.349 78.486h-67.632l11.258-19.454 6.333 10.971c1.346 2.332 3.814 3.76 6.53 3.75 2.692-.013 5.171-1.468 6.495-3.812l16.116-28.461z"/><path d="m436.359 159.845h-93.486c-4.143 0-7.5 3.357-7.5 7.5v93.486c0 .07.009.137.01.206.117 4.069 3.41 7.244 7.401 7.29.03 0 .059.004.089.004h93.478c.005 0 .01.001.015.001.035 0 .07-.006.105-.007 4.085-.059 7.388-3.401 7.388-7.494v-.123c0-.004 0-.008 0-.011v-93.353c0-4.142-3.357-7.499-7.5-7.499zm-7.5 15v57.455l-13.188-23.351c-2.66-4.71-7.673-7.636-13.082-7.636-5.408 0-10.421 2.926-13.081 7.636l-9.619 17.032c-2.756-4.465-7.498-7.115-12.775-7.115-5.431 0-10.294 2.809-13.009 7.512l-3.732 6.465v-57.997h78.486zm-5.349 78.486h-67.632l11.258-19.454 6.334 10.971c1.34 2.321 3.816 3.75 6.495 3.75h.036c2.691-.013 5.171-1.468 6.494-3.812l16.115-28.461z"/><path d="m325.875 130c0-4.143-3.357-7.5-7.5-7.5h-124.75c-4.143 0-7.5 3.357-7.5 7.5s3.357 7.5 7.5 7.5h124.75c4.143 0 7.5-3.357 7.5-7.5z"/></g></svg>